<svg class="svg-icon" style="width: 1em; height: 1em;vertical-align: middle;fill: currentColor;overflow: hidden;" viewBox="0 0 1024 1024" version="1.1" xmlns="http://www.w3.org/2000/svg"><path d="M537.819429 742.253714l259.437714-259.437714q10.825143-10.825143 10.825143-25.746286t-10.825143-25.746286l-58.294857-58.294857q-10.825143-10.825143-25.746286-10.825143t-25.746286 10.825143l-175.396571 175.396571-175.396571-175.396571q-10.825143-10.825143-25.746286-10.825143t-25.746286 10.825143l-58.294857 58.294857q-10.825143 10.825143-10.825143 25.746286t10.825143 25.746286l259.437714 259.437714q10.825143 10.825143 25.746286 10.825143t25.746286-10.825143zM950.930286 512q0 119.442286-58.88 220.306286t-159.744 159.744-220.306286 58.88-220.306286-58.88-159.744-159.744-58.88-220.306286 58.88-220.306286 159.744-159.744 220.306286-58.88 220.306286 58.88 159.744 159.744 58.88 220.306286z"  /></svg>